<?xml version="1.0" encoding="UTF-8"?>
<svg id="_레이어_2" data-name="레이어 2" xmlns="http://www.w3.org/2000/svg" viewBox="0 0 881.8 113.02">
  <defs>
    <style>
      .cls-1 {
        fill: #000;
        stroke-width: 0px;
      }
    </style>
  </defs>
  <g id="_레이어_1-2" data-name="레이어 1">
    <g>
      <path class="cls-1" d="M0,54.23L37.53.86l8.68,5.75L13.02,54.23l33.19,47.5-8.68,5.98L0,54.23Z"/>
      <path class="cls-1" d="M120.21,47.42c-.12,11.73-2.11,19.23-8.91,19.82-3.64.35-4.1-3.05-4.57-4.22l-21.23,1.29c-.47.94-3.52,5.86-8.21,5.86-3.99,0-4.34-6.92-4.46-11.84l-.59-22.52c-.12-2.93-1.41-4.93-5.86-7.04-1.76-.82-6.92-2.35-.12-4.57,1.41-.47,15.13.82,16.77,1.17,5.51,1.29,3.52,2.7,3.52,7.27v2.35l19.35-.82v-5.63c0-1.88-1.64-3.87-4.81-5.98-1.52-1.05-4.81-2.23.12-4.22,2.81-1.17,10.2.82,16.65,2.35,4.1.94,2.7,4.57,2.58,9.03l-.23,17.71ZM154.1,106.53c-5.98.47-37.29.94-44.68.94-4.34,0-8.68-1.29-10.55-3.63-1.52-1.88-1.99-4.46-2.11-7.51l-.23-8.21c-.12-2.58-3.28-4.93-7.98-6.33-1.29-.35-5.28-1.64,1.41-4.34,2.11-.82,10.67-.47,17.47.23,5.75.59,3.87,4.34,3.87,9.15v7.39c0,1.88.12,4.22,1.06,4.69,1.29.7,2.7.59,4.46.59s21.34,0,24.16-1.99c3.75-2.7,8.68-3.05,14.54-2.35,6.57.82,5.51,10.91-1.41,11.38ZM106.02,42.5l-19.47.82v12.43l19.47-1.06v-12.2ZM149.41,53.64v9.97c0,10.91-1.76,22.64-9.62,22.28-3.4-.12-4.57-9.62-4.69-20.29l-.47-48.79c-.12-6.92-3.17-8.56-8.09-11.96-2.7-1.88-4.1-2.93.35-4.57,3.05-1.17,13.96,1.64,19.12,3.4,6.57,2.23,3.64,3.75,3.64,10.67l-.23,30.38c1.41-.12,3.05-.12,5.86-2.7,2.7-2.46,7.39-1.41,10.79-1.52,6.1-.12,6.69,11.61,0,12.08-6.22.47-12.2.82-16.65,1.06Z"/>
      <path class="cls-1" d="M214.5,68.42c-12.31,12.67-25.92,21.23-34.13,24.51-5.16,2.11-5.63-.7-2.23-2.46,2.23-1.17,14.66-11.84,22.05-21.34,11.61-14.89,17.36-31.67,17.83-33.07-1.99.12-5.28.47-8.8.7-4.34.35-7.04,1.17-9.5,1.64-6.1,1.06-4.69,4.22-15.25-4.34-3.87-3.17-7.04-7.27,1.99-5.16,5.4,1.29,31.43-.7,34.71-1.76,3.75-1.17,10.09-.7,13.37-.35,7.04.7,1.88,8.09.23,10.79-1.29,2.11-7.62,17.83-20.29,30.84ZM281.23,62.9c-6.1.59-11.14.7-15.13.82l-.35,20.76c-.23,11.73-.82,28.26-9.97,28.38-3.75,0-3.87-11.96-3.87-19.82l-.23-75.88c0-6.22-5.16-9.38-9.38-12.31-2.7-1.88-4.57-3.05.35-4.57,1.52-.47,14.66,1.88,19.94,3.52,7.62,2.46,4.1,4.46,3.99,11.38l-.35,38.47c1.99-.47,4.69-1.17,6.57-2.35,2.46-1.53,5.63-1.17,9.03-1.17,7.97-.12,7.62,12.08-.59,12.78Z"/>
      <path class="cls-1" d="M391.82,68.53c-7.98-.47-24.04-.23-38.12.35-16.54.7-28.62,2.7-35.3,3.4-9.62,1.06-7.39,5.63-19.35-4.22-6.1-5.04-6.45-8.56-.23-6.8,7.74,2.23,38.47,1.05,49.26.35,15.72-.94,32.13-1.88,34.48-3.64,3.28-2.46,22.52-2.23,22.52,3.99,0,7.51-4.22,7.15-13.25,6.57ZM375.99,25.84c1.41.59,1.76.82,2.46,1.52,2.46,2.46.82,6.8-5.86,6.45-7.27-.35-31.67,1.05-38.94,1.52v6.8c0,.82-.12,1.64.47,2.23.7.7,1.52.47,2.58.47,3.05,0,24.86.12,28.38-2.23,3.28-2.23,9.27-1.88,14.54-1.41,4.46.35,6.33,8.68-1.52,9.15-5.04.35-41.99,2.58-47.5,2.23-1.76-.12-6.8-1.05-8.56-2.93-1.06-1.17-2.58-3.87-2.58-6.22v-8.44c0-2.58-2.81-3.52-4.93-4.46-1.17-.59-4.69-1.52-1.17-3.28,3.99-1.99,17.83-.47,19.47.59.59.35,25.1-1.52,32.6-2.23l.23-8.8c-5.28.23-8.33.35-15.48.59-7.04.23-13.02,1.17-18.06,1.76-5.86.7-4.46,3.05-14.54-4.11-6.92-4.93-4.22-6.8-1.41-5.86,5.16,1.64,46.91.94,49.61-.59,1.88-1.06,8.8-1.41,14.19-.35,5.04.94,1.17,5.75.47,7.39l-4.46,10.2ZM383.03,106.42c-6.1.35-44.8,1.05-49.02,1.05-3.99,0-8.09-1.88-9.5-3.75-1.52-1.99-1.76-4.22-1.99-7.04l-.59-9.38c-.23-3.17-3.64-5.28-6.8-6.45-1.29-.47-3.87-2.11,2.23-3.99,1.99-.59,9.15-.23,15.01.47,6.22.7,4.22,2.93,4.22,7.86v9.27c0,1.99.23,4.57,1.17,5.04,1.64.7,2.7.47,4.34.47,1.76,0,22.63-.47,25.92-2.7,5.16-3.64,9.5-2.58,15.36-2.23,8.44.47,6.92,10.91-.35,11.38Z"/>
      <path class="cls-1" d="M468.05,50.59c-1.29,5.16-2.7,9.62-3.75,13.14,1.76,0,2.7,0,4.1.94,4.93,3.28,1.76,7.97-2.35,7.74-4.1-.23-27.44,1.06-31.43,1.17-.7,1.76-2.7,7.15-7.15,7.39-3.4.24-4.81-4.57-5.16-8.44l-3.17-32.49c-.23-2.93-2.7-5.16-5.86-6.21-2.58-.82-5.4-2.82.94-4.46,6.69-1.76,17.71,1.05,18.88,1.29,3.75.59,21.81-.35,23.22-1.41.82-.59,7.62-.59,11.96-.47,9.97.35,3.17,7.27,2.7,9.5-.7,2.93-1.64,7.51-2.93,12.31ZM433.57,39.21l1.06,26.27,20.17-1.41.7-26.15-21.93,1.29ZM501.01,61.85l-.35,23.1c-.23,11.61-.94,28.62-10.09,27.91-4.22-.35-3.87-13.49-3.87-22.28l-.35-73.53c0-6.8-4.1-8.68-7.86-12.43-1.29-1.29-4.34-2.58,0-4.46,1.41-.59,13.96,2.11,18.88,3.75,7.51,2.58,3.87,6.57,3.87,11.14l-.12,37.65c2.7-.59,3.05-.12,6.33-2.46,3.28-2.35,6.92-1.76,10.32-1.76,7.62-.12,7.15,11.96.47,12.43-6.1.47-12.67.7-17.24.94Z"/>
      <path class="cls-1" d="M624.03,61.85c-8.68-.59-24.16-.23-39.17.35-17.59.7-27.09,2.58-32.96,3.17-9.62,1.06-7.04,7.15-20.29-4.46-5.75-5.04-4.69-7.27.47-5.86,5.28,1.41,36.71.82,47.5.35,15.72-.7,36.24-1.64,38.94-4.1,2.23-1.99,20.88-2.11,20.17,5.04-.7,7.51-6.92,6.1-14.66,5.51ZM609.84,22.44c1.41.47,1.64.82,2.46,1.64,2.46,2.46,1.29,6.33-5.39,6.45-7.27.12-28.26,1.06-39.64,1.29v5.04c0,1.05.12,1.76.94,2.46s1.76.35,2.81.35c2.93,0,22.87-.23,26.51-2.23,3.64-1.99,8.56-1.88,13.84-1.17,4.57.59,5.4,8.68-2.58,9.26-4.93.35-40.34,1.99-43.75,1.88-1.88-.12-7.27-.35-9.03-2.11-1.17-1.17-2.7-3.05-2.7-5.28v-8.21c0-3.05-3.99-3.64-5.86-4.57-1.17-.59-4.69-.82-.47-3.4,3.87-2.35,17.83-.47,19.47.59.7.47,24.75-1.41,32.02-2.11l.12-8.8c-4.69.35-8.21.24-15.36.7-7.51.47-14.66,1.64-19.35,2.11-5.86.59-4.34,4.46-14.54-3.64-6.57-5.16-3.75-6.68-.82-5.75,6.8,2.23,49.02-.59,51.72-1.29,4.1-1.06,7.74-.47,12.67.12,6.22.7,1.06,5.86.47,7.51l-3.52,9.15ZM610.9,89.64c-1.06,3.05-1.88,5.86-2.81,7.97,1.52.7,2.23.82,3.17,1.64,2.11,1.76,2.11,7.39-5.04,7.27-15.48-.23-31.67.82-36.12.94-1.41,1.99-1.99,4.69-6.33,5.51-2.58.47-4.46-3.17-5.4-10.09l-2.46-19.12c-.47-3.75-.12-4.81-5.86-7.51-1.64-.82-4.34-1.41-1.06-3.64,2.81-1.88,17.71-.47,18.41.59,5.16.12,30.96-1.06,32.72-2.23s7.74-.47,12.67.12c7.27.82,2.11,6.92,1.17,9.62-1.17,3.28-1.88,5.51-3.05,8.91ZM584.39,80.03c-5.63.23-10.56.82-14.54,1.06l.59,18.41c2.58-.23,8.33-.35,13.72-.7,5.63-.47,11.49-.94,14.43-1.41.12-2.35.23-5.04.35-8.21.12-3.75.12-6.69.12-9.5-3.64-.12-8.91.12-14.66.35Z"/>
      <path class="cls-1" d="M742.6,93.98c-9.62-1.17-27.21-.12-40.93.35-16.54.59-27.91,2.81-33.07,3.52-8.44,1.06-4.34,7.04-17.36-4.34-5.86-5.16-7.15-9.03-2.11-7.74,3.75.94,12.2,1.52,27.44,1.29,6.69-.12,13.96-.23,19-.59l-.35-10.91c-.12-3.05-2.58-4.69-4.69-5.51-1.41-.59-5.4-2.35.94-3.87,1.88-.47,8.68,0,15.13.7,5.86.59,3.05,6.57,2.93,8.44l-.35,10.44c6.45-.47,21.58-1.17,25.68-3.28,3.64-1.88,24.16-3.52,21.7,7.27-1.29,5.63-5.51,5.28-13.96,4.22ZM731.81,37.22c-1.52,4.81-3.17,9.38-4.22,12.08,1.52.23,3.52.7,4.57,1.52,3.87,3.05-.24,8.09-5.98,7.86-12.78-.35-38,1.41-43.16,1.52-.59,1.53-2.11,5.4-6.22,5.75-4.69.35-5.51-5.98-5.98-10.79l-2.46-24.86c-.35-3.99-1.41-4.93-7.74-7.74-2.35-1.05-3.64-2.58,1.64-4.57,3.4-1.29,18.65.82,19.47,1.76.23.23,35.42-.7,37.06-2.23,1.17-1.05,11.02-.7,14.78-.23,8.68.94,1.99,7.74,1.17,10.32-.59,2.11-1.76,5.98-2.93,9.62ZM682.9,27.96l.82,23.81c3.99-.12,9.38-.12,16.3-.47,6.92-.35,14.42-.94,17.83-1.29.82-5.28,1.76-19.82,1.76-23.92l-36.71,1.88Z"/>
      <path class="cls-1" d="M769.34,98.32l36.24-91.01c2.23-5.75,12.9-3.28,10.55,2.7l-36.12,91.01c-2.35,5.98-13.02,3.05-10.67-2.7Z"/>
      <path class="cls-1" d="M844.27,107.7l-8.68-5.98,33.19-47.5-33.19-47.62,8.68-5.75,37.53,53.36-37.53,53.48Z"/>
    </g>
  </g>
</svg>